<svg width="65" height="64" viewBox="0 0 65 64" fill="none" xmlns="http://www.w3.org/2000/svg">
<path d="M12.5 56V49.09C12.4982 40.5488 15.0243 32.1981 19.76 25.09L20.5 24" stroke="#757575" stroke-width="2"/>
<path d="M44.5 24L45.24 25.11C49.9757 32.2181 52.5018 40.5688 52.5 49.11V56" stroke="#757575" stroke-width="2"/>
<path d="M44.5 44L41.76 44.91C35.7503 46.9203 29.2497 46.9203 23.24 44.91L20.5 44V20C20.5 16.8174 21.7643 13.7652 24.0147 11.5147C26.2652 9.26428 29.3174 8 32.5 8C35.6826 8 38.7348 9.26428 40.9853 11.5147C43.2357 13.7652 44.5 16.8174 44.5 20V44Z" stroke="#757575" stroke-width="2"/>
<path d="M28.5 36V24" stroke="#757575" stroke-width="2"/>
</svg>
