<svg width="52" height="52" viewBox="0 0 52 52" fill="none" xmlns="http://www.w3.org/2000/svg">
<g clip-path="url(#clip0_135_4)">
<path d="M44.5714 20.0107C44.5714 9.70354 36.2607 1.39282 26 1.39282C15.7393 1.39282 7.42857 9.70354 7.42857 19.9643C7.42857 19.9643 7.42857 19.9643 7.42857 20.0107C3.29643 20.2428 0 23.6785 0 27.8571V28.7857C0 33.15 3.52857 36.6785 7.89286 36.6785H8.31071L11.6071 41.925C13.9286 45.6393 17.875 47.8214 22.2393 47.8214H22.8893C23.3071 49.4 24.7464 50.6071 26.4643 50.6071C28.5071 50.6071 30.1786 48.9357 30.1786 46.8928C30.1786 44.85 28.5071 43.1785 26.4643 43.1785C24.7464 43.1785 23.3071 44.3857 22.8893 45.9643H22.2393C18.525 45.9643 15.1357 44.0607 13.1857 40.9035L10.4929 36.6785H11.1429C12.1643 36.6785 13 35.8428 13 34.8214V21.8214C13 20.8 12.1643 19.9643 11.1429 19.9643H9.28571C9.28571 10.725 16.7607 3.24997 26 3.24997C35.2393 3.24997 42.7143 10.725 42.7143 19.9643H40.8571C39.8357 19.9643 39 20.8 39 21.8214V34.8214C39 35.8428 39.8357 36.6785 40.8571 36.6785H44.1071C48.4714 36.6785 52 33.15 52 28.7857V27.8571C52 23.6785 48.7036 20.2428 44.5714 20.0107ZM26.4643 45.0357C27.4857 45.0357 28.3214 45.8714 28.3214 46.8928C28.3214 47.9143 27.4857 48.75 26.4643 48.75C25.4429 48.75 24.6071 47.9143 24.6071 46.8928C24.6071 45.8714 25.4429 45.0357 26.4643 45.0357ZM11.1429 21.8214V34.8214H7.89286C4.55 34.8214 1.85714 32.1285 1.85714 28.7857V27.8571C1.85714 24.5143 4.55 21.8214 7.89286 21.8214H11.1429ZM50.1429 28.7857C50.1429 32.1285 47.45 34.8214 44.1071 34.8214H40.8571V21.8214H44.1071C47.45 21.8214 50.1429 24.5143 50.1429 27.8571V28.7857Z" fill="#6FC9FE"/>
<path d="M33.7071 8.40348C33.6143 8.35705 33.475 8.2642 33.3357 8.17134C33.1964 8.07848 33.0571 7.98562 32.9643 7.9392C32.5464 7.66062 31.9428 7.79991 31.7107 8.2642C31.4786 8.72848 31.5714 9.2392 32.0357 9.51777C32.1286 9.5642 32.2678 9.65705 32.4071 9.74991C32.5464 9.84277 32.6857 9.93562 32.825 9.98205C32.9643 10.0749 33.15 10.1213 33.2893 10.1213C33.6143 10.1213 33.8928 9.98205 34.0786 9.65705C34.3107 9.2392 34.1714 8.68205 33.7071 8.40348Z" fill="#6FC9FE"/>
<path d="M26 6.03564C22.0536 6.03564 18.3393 7.7535 15.7857 10.7249C15.4607 11.0964 15.5071 11.6999 15.8786 12.0249C16.0643 12.1642 16.25 12.2571 16.4821 12.2571C16.7607 12.2571 16.9928 12.1642 17.1786 11.9321C19.4071 9.3785 22.6107 7.89279 26 7.89279C26.8357 7.89279 27.6714 7.98564 28.5071 8.17136C29.0178 8.26422 29.4821 7.93922 29.6214 7.47493C29.7607 7.01064 29.3893 6.49993 28.925 6.36064C27.95 6.1285 26.975 6.03564 26 6.03564Z" fill="#6FC9FE"/>
</g>
<defs>
<clipPath id="clip0_135_4">
<rect width="52" height="52" fill="white"/>
</clipPath>
</defs>
</svg>
