<svg version="1.1" id="Layer_1" xmlns="http://www.w3.org/2000/svg" xmlns:xlink="http://www.w3.org/1999/xlink" x="0px" y="0px"
	 width="100%" viewBox="0 0 1024 1008" enable-background="new 0 0 1024 1008" xml:space="preserve">
<path fill="#000000" opacity="1.000000" stroke="none" 
	d="
M706.574585,214.409912 
	C720.980713,226.291138 732.551880,240.153946 742.088806,255.736099 
	C745.944763,262.036224 748.599548,268.867432 750.118652,276.102905 
	C751.522217,282.787506 753.089233,289.455353 754.088928,296.203979 
	C757.164734,316.968262 767.530212,333.701294 781.278442,349.127991 
	C791.138306,360.191711 803.258728,368.953613 811.903625,381.264587 
	C821.911499,395.516418 824.743286,411.292145 824.505676,428.105133 
	C824.298218,442.782043 821.610107,457.241577 820.910583,471.897125 
	C819.911865,492.822388 824.157532,512.644165 831.619263,531.957153 
	C833.653503,537.222351 834.547546,542.514160 833.516724,548.104492 
	C833.277466,549.401978 833.052490,550.808350 833.297485,552.072205 
	C835.365356,562.741577 833.106812,572.827148 828.023132,582.011047 
	C822.326172,592.302979 822.458069,603.228821 823.372925,614.130127 
	C824.209961,624.104248 822.629822,633.729248 821.329529,643.431519 
	C818.055725,667.858582 814.347900,692.229126 811.244324,716.676941 
	C809.465515,730.689087 812.008728,744.289795 817.705688,757.182983 
	C823.052368,769.283325 824.039978,781.515015 822.112122,794.676575 
	C818.576965,818.810486 809.885193,841.268311 801.280212,863.744812 
	C797.243774,874.288086 789.038940,881.982422 778.833130,886.997620 
	C768.498779,892.076111 759.362244,899.167480 749.001160,904.202087 
	C745.247131,906.026306 742.386902,909.371094 740.213989,912.929382 
	C736.192566,919.514771 730.257446,923.086060 722.953918,924.479980 
	C700.991577,928.671509 678.820312,930.886169 656.452698,930.917358 
	C625.456299,930.960571 594.456787,930.681824 563.464355,931.037109 
	C545.498779,931.243042 527.614807,934.042603 509.628754,933.878662 
	C470.499573,933.521790 431.396545,932.548157 392.358582,929.336426 
	C378.449371,928.192078 364.418823,928.654419 350.481262,927.103394 
	C335.058685,925.387146 321.645630,920.035034 310.648407,908.642578 
	C305.989929,903.816711 299.007721,902.330444 293.012421,899.478699 
	C290.017548,898.054260 286.794891,897.083069 283.629303,896.047363 
	C269.395325,891.390442 258.135345,882.822571 249.194977,870.828247 
	C241.237549,860.152710 230.404312,852.526367 219.540924,845.195374 
	C214.054214,841.492859 209.961121,837.067261 207.123260,831.280090 
	C205.564758,828.101990 203.591690,825.177063 201.091812,822.745117 
	C197.335770,819.091187 196.120377,814.706482 196.011139,809.651367 
	C195.716629,796.020691 195.471344,782.409363 192.869461,768.913025 
	C190.665222,757.479431 191.945068,745.976807 194.397964,734.693115 
	C196.841949,723.450378 196.918243,711.856995 199.772415,700.688965 
	C200.346939,698.440857 200.245438,695.997925 200.964890,693.812500 
	C204.924377,681.784668 205.575851,669.336304 206.033386,656.839600 
	C206.099335,655.038086 206.295471,653.032532 207.131042,651.503845 
	C210.913910,644.583069 212.135345,637.144836 212.494186,629.397217 
	C212.702240,624.905457 213.800247,620.522278 215.333939,616.251648 
	C218.495560,607.447998 216.797333,598.637024 214.098114,590.264404 
	C208.766708,573.726807 208.113052,556.888306 209.549866,539.856445 
	C211.265366,519.520813 208.392395,499.983917 200.181961,481.293976 
	C195.766357,471.242432 190.913284,461.356293 187.617722,450.869751 
	C184.598999,441.264191 185.407928,432.457672 192.767914,424.410706 
	C197.540680,419.192474 201.622696,413.025543 204.706055,406.650909 
	C209.750824,396.221191 217.981369,390.302551 228.516266,386.885468 
	C239.917099,383.187531 251.704529,380.840942 262.893860,376.324890 
	C281.663055,368.749603 296.077209,356.292114 306.577301,339.138641 
	C310.102875,333.379059 311.763733,326.883209 313.523102,320.464569 
	C317.402374,306.311584 319.857697,291.846924 322.750244,277.477203 
	C324.757233,267.506775 327.426056,257.705353 330.932526,248.145294 
	C331.448608,246.738266 332.382965,245.326614 332.387604,243.914688 
	C332.430145,230.932434 340.635406,221.606293 346.450378,211.079102 
	C354.910431,195.763367 367.293884,184.514465 381.237274,174.604904 
	C382.173706,173.939407 383.253906,173.361572 384.354156,173.058640 
	C397.510132,169.436661 410.546539,165.303909 424.222168,163.916260 
	C433.578674,162.966873 442.756714,160.943192 451.012604,156.394913 
	C465.150574,148.606110 480.130585,142.336121 493.420380,133.013138 
	C500.368073,128.139282 508.189697,128.388504 516.047180,129.378143 
	C519.709778,129.839447 523.360901,130.374893 526.981140,129.632660 
	C535.137878,127.960350 542.884888,129.505432 549.429993,134.131516 
	C564.617310,144.865860 581.398926,149.284653 599.768799,149.073242 
	C606.438354,148.996475 612.197144,152.554535 618.166077,155.067520 
	C641.621033,164.942291 661.492432,180.358185 681.365784,195.806671 
	C689.514282,202.140823 697.971191,208.078156 706.574585,214.409912 
M688.124084,555.628357 
	C690.450623,555.630432 692.797363,555.838196 694.682861,553.963989 
	C704.490906,544.214783 714.375000,534.541382 724.109436,524.719421 
	C726.502441,522.304871 725.633667,519.371765 722.541809,517.942139 
	C719.957520,516.747253 718.125183,517.887634 716.348450,519.683044 
	C710.487427,525.605835 704.582886,531.485840 698.664368,537.351318 
	C697.387573,538.616760 696.282532,540.272949 694.207703,540.283813 
	C687.709167,540.317932 681.210205,540.319641 674.711670,540.284546 
	C673.319824,540.277100 672.023132,539.944580 671.917175,538.150146 
	C671.789062,535.979858 673.298401,535.746155 674.876892,535.725098 
	C679.209351,535.667114 683.543091,535.612732 687.875305,535.658875 
	C691.267273,535.695007 692.997314,533.490845 693.077026,530.735840 
	C693.159851,527.873169 690.675537,526.585938 687.923584,526.443237 
	C685.596069,526.322571 683.257263,526.339478 680.925537,526.391541 
	C659.610352,526.867554 661.302429,523.082153 646.796997,539.394165 
	C644.712769,541.737915 643.062012,541.187988 640.999268,539.164490 
	C633.881226,532.182129 626.759827,525.210205 619.428284,518.434082 
	C607.810791,507.696716 596.924561,496.168854 585.710938,484.993408 
	C579.218506,478.523102 572.692871,472.086090 566.178162,465.638123 
	C564.564270,464.040802 562.970886,462.562866 560.715271,464.816650 
	C556.119751,469.408417 551.076416,473.616302 546.923096,478.573456 
	C537.182861,490.198975 525.198242,499.652313 515.644470,511.432098 
	C514.173401,513.245850 512.441345,513.685852 510.569885,511.760284 
	C507.899994,509.013245 505.053070,506.432281 502.467651,503.610107 
	C490.676147,490.738464 478.827240,477.925842 466.298035,465.757721 
	C464.383301,463.898163 463.008057,463.804779 460.837067,465.599487 
	C446.059662,477.815582 433.407745,492.253082 419.252686,505.128265 
	C407.571930,515.752747 396.532379,527.084473 385.279510,538.174683 
	C383.523102,539.905701 382.195251,539.952332 380.128571,538.604919 
	C376.718384,536.381653 374.227936,533.237122 371.246674,530.596863 
	C368.891083,528.510681 366.652100,525.752747 363.428406,525.563782 
	C355.478088,525.097717 347.488373,525.525452 339.551331,524.412109 
	C335.730804,523.876221 335.307739,526.455322 335.309906,529.478516 
	C335.312073,532.448608 335.537079,534.822205 339.461090,534.673828 
	C343.287964,534.529053 347.125885,534.663757 350.958801,534.697327 
	C353.894379,534.723083 354.933197,535.949097 353.443176,538.929688 
	C351.793549,538.742493 350.095459,538.148743 348.564423,538.438293 
	C334.176239,541.159546 323.936798,534.769348 315.658997,523.810242 
	C314.764801,522.626404 313.536438,521.696533 312.473267,520.638550 
	C307.069855,515.261719 306.072662,515.407410 301.361969,522.587891 
	C307.482422,529.914429 315.259399,535.868042 321.310059,543.313110 
	C327.993591,551.536865 335.810181,555.424805 346.367126,553.702576 
	C348.639984,553.331787 351.104279,554.036987 353.344482,553.580139 
	C363.595795,551.489685 370.383301,556.658020 376.327515,563.985046 
	C377.539734,565.479309 378.453339,566.893188 378.344330,568.878723 
	C377.649536,581.533325 379.796265,594.105225 379.401642,606.765442 
	C379.126587,615.589905 379.325439,624.430054 379.372589,633.262878 
	C379.382812,635.179565 378.959625,637.281555 381.111725,639.055969 
	C417.939178,605.194153 452.440308,568.961914 488.247803,533.819519 
	C489.981079,536.465271 488.526093,537.944031 487.707458,539.480530 
	C486.224854,542.263367 484.674133,545.011658 483.090698,547.738831 
	C460.581238,586.507324 438.059479,625.268616 415.546539,664.035034 
	C412.021179,670.105530 412.109589,670.015625 417.641266,674.261292 
	C431.979980,685.266602 446.296967,696.301880 460.489746,707.493713 
	C462.776764,709.297180 464.075470,709.350769 466.404510,707.539673 
	C480.541779,696.546387 494.839508,685.759521 509.079132,674.897766 
	C511.105438,673.352234 513.086426,671.704651 515.743958,673.716431 
	C519.981201,676.924072 524.235291,680.109436 528.470215,683.320190 
	C539.173828,691.435181 549.896301,699.525879 560.548584,707.707764 
	C562.650879,709.322449 564.400635,709.161133 566.350952,707.604431 
	C580.867920,696.017395 595.329163,684.358276 609.986023,672.950684 
	C613.474854,670.235229 613.122192,667.829346 611.206116,664.570923 
	C604.142578,652.559387 597.248047,640.448547 590.200073,628.427734 
	C572.502808,598.243591 554.761108,568.085388 537.017883,537.928223 
	C535.984863,536.172485 535.561890,534.626282 537.632446,533.317444 
	C539.656433,534.041138 540.867310,535.701782 542.265625,537.091736 
	C551.839844,546.607971 561.433411,556.105652 570.923035,565.705872 
	C593.947266,588.998535 616.903198,612.358582 639.940369,635.638428 
	C641.719482,637.436279 643.182861,640.013855 646.362122,639.738220 
	C648.158264,637.686096 647.552307,635.256592 647.636414,632.983643 
	C648.363708,613.339111 646.762146,593.733093 646.547607,574.101807 
	C646.496704,569.443604 648.217590,566.399231 651.417358,563.315979 
	C657.315186,557.633057 663.655518,554.273376 672.229187,555.506531 
	C677.127441,556.210999 682.210510,555.631042 688.124084,555.628357 
M472.017029,418.380157 
	C483.438416,422.909851 494.895416,427.352661 506.262573,432.014526 
	C510.458771,433.735413 514.188904,434.008148 518.640076,432.229889 
	C547.799133,420.581116 577.066467,409.201935 606.351318,397.871521 
	C610.015442,396.453888 614.038574,395.879669 611.925232,390.166534 
	C615.572021,391.014801 618.489258,392.096741 621.312927,393.520477 
	C641.810669,403.855865 660.476746,416.530670 675.461914,434.274628 
	C684.984314,445.550262 692.692505,457.699402 697.574036,471.709167 
	C700.925110,481.326660 701.348511,491.173218 701.337769,501.138794 
	C701.334595,504.060425 701.664795,506.809784 705.453674,506.489960 
	C708.651001,506.220032 708.881775,504.035980 708.838318,501.079712 
	C708.654114,488.565399 706.104065,476.449554 703.773560,464.230957 
	C694.270935,414.409454 669.719910,373.486450 630.821777,341.312836 
	C611.839661,325.612183 590.273682,314.142212 566.446289,307.366760 
	C562.266724,306.178253 559.678223,303.886139 557.537537,300.205200 
	C544.353516,277.535675 531.033142,254.944672 517.598511,232.422791 
	C516.349548,230.329010 515.601807,227.449371 512.864990,226.599045 
	C510.955841,227.517731 510.456238,229.214386 509.628754,230.618744 
	C495.624359,254.386414 481.592896,278.138550 467.732910,301.990295 
	C466.127228,304.753479 464.016571,305.855377 461.174622,306.640869 
	C432.264313,314.631287 406.932709,329.219940 384.923767,349.372192 
	C362.943237,369.498352 346.246674,393.487915 334.445465,420.947754 
	C323.484833,446.451752 318.814362,473.207550 317.372345,500.699738 
	C317.215118,503.697906 318.164459,506.231506 321.483856,506.462402 
	C325.222687,506.722473 325.557312,503.792999 325.638397,500.988464 
	C326.454071,472.786591 338.517120,449.543396 357.304779,429.293671 
	C368.955811,416.735840 382.806396,407.005798 397.621521,398.620972 
	C403.015228,395.568298 408.753845,393.125000 415.163849,389.999573 
	C414.455414,395.307556 417.487457,396.851715 420.363159,398.004181 
	C437.303802,404.793365 454.317322,411.400787 472.017029,418.380157 
M437.465302,425.029572 
	C442.368774,430.218781 447.275543,435.411713 452.140747,440.628296 
	C470.514740,460.329071 489.403564,479.551453 508.200317,498.854889 
	C512.916077,503.697784 513.230164,503.665131 518.002991,498.664856 
	C532.697571,483.269836 547.539490,468.013794 562.281433,452.666901 
	C575.765015,438.629974 589.340088,424.664307 602.918457,410.710083 
	C604.890991,408.682922 607.536804,407.031982 608.391724,403.496674 
	C605.091248,403.679291 602.615112,404.933167 600.118103,406.135376 
	C572.239380,419.557343 544.341492,432.939728 516.503845,446.446228 
	C513.690491,447.811249 511.451172,447.833710 508.609436,446.420044 
	C484.319824,434.337158 459.968628,422.377441 435.587921,410.479034 
	C430.473877,407.983246 425.162567,405.891602 419.942169,403.613770 
	C419.597351,404.096466 419.252533,404.579163 418.907745,405.061859 
	C424.931915,411.544708 430.956116,418.027527 437.465302,425.029572 
M663.317993,759.519775 
	C660.311218,769.517578 657.318298,779.519653 654.284180,789.509155 
	C653.773865,791.189148 653.524475,793.248962 650.676147,792.947998 
	C650.397583,788.736267 649.546509,784.610962 649.596069,780.322388 
	C649.746399,767.331177 649.590515,754.336670 649.687134,741.344482 
	C649.710571,738.202881 649.042419,736.462219 645.387878,736.173462 
	C639.797058,735.731628 634.173279,735.012024 628.719910,733.739624 
	C624.137329,732.670288 622.097229,734.325928 621.498962,738.534180 
	C619.124939,755.231934 616.794678,771.936035 614.482056,788.642395 
	C614.245667,790.350281 614.278503,792.120850 616.531921,792.525269 
	C618.972717,792.963379 621.428894,793.336121 623.891235,793.629211 
	C626.800110,793.975342 628.376770,793.119202 628.791260,789.702881 
	C630.205688,778.045288 631.825745,766.404602 633.742798,754.819580 
	C634.593079,749.681763 634.874390,744.581421 633.819336,738.951843 
	C637.005981,740.218201 636.328064,742.149719 636.304932,743.629700 
	C636.061218,759.264526 638.193115,774.854004 637.271790,790.485779 
	C637.042175,794.380798 638.703308,795.990295 642.126831,796.451904 
	C647.863770,797.225464 653.614441,797.896362 659.355164,798.642822 
	C663.121704,799.132568 665.014709,797.594116 666.127136,793.841980 
	C670.462158,779.221375 675.103882,764.691467 679.670715,750.140137 
	C680.158447,748.586182 680.153687,746.535645 682.866699,746.078979 
	C683.213196,749.195007 680.873596,751.170715 680.511353,753.696655 
	C678.468811,767.940430 676.437134,782.185791 674.368469,796.425720 
	C673.946045,799.333191 675.371216,800.878967 678.001709,801.361816 
	C679.786499,801.689453 681.728516,801.315186 683.451965,801.791321 
	C687.441406,802.893555 688.289001,800.928833 688.702576,797.508362 
	C689.794312,788.479919 691.173096,779.486023 692.451355,770.480347 
	C693.497864,763.107483 694.593018,755.741272 695.609802,748.364319 
	C696.136353,744.544128 694.803345,742.521484 690.536560,742.257629 
	C684.604919,741.890869 678.659058,741.183350 672.824768,740.069275 
	C670.128418,739.554504 669.133606,740.407715 668.452087,742.576965 
	C666.762634,747.954346 665.089844,753.336975 663.317993,759.519775 
M574.413635,777.548950 
	C570.927368,776.366638 568.787292,774.111023 568.665771,770.278259 
	C568.610779,768.542175 568.503174,766.580872 566.291138,766.571411 
	C562.572510,766.555420 558.880615,763.885010 555.188904,766.332520 
	C554.655701,766.686096 554.438416,767.796448 554.400391,768.572571 
	C554.061279,775.482910 556.023254,781.544373 562.006287,785.460022 
	C571.835022,791.892517 582.734192,792.697693 594.033569,790.814880 
	C601.087952,789.639465 606.864258,786.645569 608.491638,779.119019 
	C610.199890,771.218445 607.330872,765.545349 599.557556,760.873047 
	C595.877625,758.661194 591.818604,757.075073 587.912109,755.246521 
	C583.556152,753.207642 579.163391,751.246948 574.817505,749.187256 
	C573.091370,748.369202 572.451050,746.899353 572.943176,745.039856 
	C573.400208,743.312744 574.737915,742.747009 576.361267,742.718079 
	C578.859009,742.673645 581.357910,742.695862 583.855835,742.658081 
	C588.701904,742.584778 592.130432,744.492737 593.706177,749.331055 
	C594.087769,750.502686 594.306030,752.275635 595.902649,752.395630 
	C599.506531,752.666565 603.778687,754.047791 606.538086,751.724792 
	C609.355530,749.352844 607.368774,745.512817 606.112122,742.465942 
	C605.557312,741.120850 604.649902,739.852234 603.664612,738.764343 
	C596.143799,730.460327 586.196106,729.397705 575.864685,729.667236 
	C574.232300,729.709778 572.599792,730.205505 570.990234,730.588074 
	C563.571899,732.351013 559.210449,736.465698 558.413269,742.398254 
	C557.399231,749.945557 559.924072,754.765625 566.796082,758.935547 
	C574.080139,763.355652 582.306458,765.669495 589.872375,769.458496 
	C592.517700,770.783264 595.609192,772.268127 594.819336,775.420105 
	C594.036377,778.544861 590.675415,779.235657 587.466003,779.386353 
	C583.254883,779.584106 579.211853,778.765869 574.413635,777.548950 
M444.348938,777.544678 
	C444.348663,778.377747 444.348419,779.210815 444.348145,780.043884 
	C444.344788,790.169739 444.344757,790.169617 454.241882,789.673645 
	C454.408173,789.665283 454.575684,789.655273 454.741486,789.665161 
	C457.462158,789.826721 458.794800,788.600159 458.639587,785.825256 
	C458.380768,781.197449 459.158875,776.550964 457.883087,771.926147 
	C456.998932,768.720947 457.857666,766.502380 462.023224,766.599121 
	C468.320190,766.745422 474.601349,766.664551 480.909821,765.791992 
	C486.926117,764.959717 487.306824,765.707031 487.345154,771.957642 
	C487.361481,774.623230 487.347412,777.288940 487.348755,779.954590 
	C487.353149,788.800598 487.355804,788.621887 496.243164,788.741150 
	C500.328064,788.795959 501.692169,787.496399 501.750275,783.320251 
	C501.961090,768.177124 499.957123,753.098083 500.630981,737.953125 
	C500.645721,737.621765 500.624908,737.284729 500.581268,736.955505 
	C499.430939,728.275269 498.457703,727.567383 489.563507,728.354492 
	C486.903534,728.589905 485.862915,729.407532 486.077118,732.407349 
	C486.479523,738.043518 486.290070,743.723083 486.311951,749.384766 
	C486.319336,751.297119 486.144928,753.327393 483.560730,753.230347 
	C476.231049,752.955322 469.036774,754.854065 461.684021,754.406677 
	C458.651733,754.222229 457.592255,752.982544 457.638245,750.101990 
	C457.723083,744.790710 456.083618,739.582336 456.614624,734.226074 
	C456.729034,733.072266 456.737915,731.549316 455.525726,731.119873 
	C451.671722,729.754578 447.523743,729.706238 443.806274,730.997498 
	C441.195404,731.904419 442.150421,735.194641 442.458649,737.317017 
	C444.351654,750.351379 442.527435,763.549438 444.348938,777.544678 
M336.575989,789.066040 
	C337.150269,791.989563 338.083405,794.897034 338.215607,797.840393 
	C338.419525,802.379639 340.994934,803.063538 344.609528,802.489014 
	C348.037628,801.944092 351.457703,801.329224 354.857513,800.629395 
	C363.544739,798.841370 372.483154,798.386108 381.152191,796.033508 
	C380.877014,793.557312 380.735931,791.413391 380.382782,789.305115 
	C379.787018,785.748535 378.651428,783.770569 374.075043,785.032532 
	C368.203888,786.651367 361.937347,786.779236 355.966980,788.112854 
	C350.795197,789.268066 350.679657,785.838562 349.998260,782.609436 
	C349.259186,779.107056 350.008179,777.208191 354.192383,776.482300 
	C360.452118,775.396301 367.116486,775.831848 372.959259,772.581177 
	C372.830322,770.384644 372.830048,768.395996 372.572968,766.441162 
	C372.132019,763.088745 371.145844,761.104919 366.758575,762.112366 
	C360.403534,763.571777 353.819458,764.033630 347.114380,764.950928 
	C346.786896,762.478821 346.809235,760.432800 346.208588,758.589844 
	C345.073578,755.107178 346.133820,753.579407 349.755341,753.463562 
	C351.223969,753.416565 352.674225,752.900635 354.139893,752.637451 
	C359.673676,751.643860 365.333252,751.098145 370.712769,749.566467 
	C376.547913,747.905029 372.137299,743.363220 372.367889,740.232239 
	C372.548157,737.784851 370.237823,737.618591 367.902100,737.999084 
	C357.441650,739.703552 346.918945,741.031799 336.470001,742.799072 
	C329.480988,743.981079 329.332092,744.476868 330.481873,751.452759 
	C330.562317,751.940613 330.812958,752.400940 330.889709,752.888916 
	C332.741638,764.662781 334.580627,776.438599 336.575989,789.066040 
M533.421509,728.368713 
	C526.926697,728.371216 520.431702,728.351379 513.937073,728.390686 
	C512.135559,728.401611 510.268982,728.233704 509.491913,730.618164 
	C507.357483,737.167603 509.709656,740.622803 516.459473,740.657349 
	C517.125610,740.660767 517.799438,740.728638 518.456604,740.652893 
	C522.079590,740.235413 523.451294,741.706055 523.414307,745.446838 
	C523.328857,754.084778 521.584595,762.656128 522.373657,771.309021 
	C522.735046,775.272095 521.120117,776.497253 517.228943,776.451721 
	C508.950043,776.354797 508.553162,777.052795 509.315125,785.256287 
	C509.520905,787.471924 510.254974,788.653564 512.600769,788.648499 
	C523.758362,788.624329 534.915894,788.643738 546.073486,788.636230 
	C547.647644,788.635193 548.945496,788.334900 549.538574,786.494873 
	C551.752930,779.624817 549.606750,776.473450 542.507751,776.362427 
	C542.174744,776.357239 541.838318,776.325623 541.509155,776.360168 
	C537.863098,776.742432 536.472351,775.166748 536.593750,771.473511 
	C536.806946,764.985657 536.653381,758.485901 536.660339,751.991089 
	C536.670837,742.146362 536.673401,742.146118 546.184814,741.648193 
	C546.517273,741.630737 546.850708,741.635071 547.183533,741.622742 
	C551.369263,741.467773 550.692749,738.315918 550.595093,735.774475 
	C550.496948,733.218140 551.881409,729.491455 547.260376,729.445984 
	C542.930847,729.403381 538.758789,727.760925 533.421509,728.368713 
M416.110199,745.683777 
	C420.300873,743.930664 424.856995,744.040344 429.191711,743.848816 
	C433.697021,743.649780 435.067322,742.133606 434.671204,737.893311 
	C434.110107,731.886841 432.059906,730.676941 425.308533,731.488037 
	C412.835510,732.986511 400.327484,734.244568 387.807343,735.279663 
	C381.388306,735.810303 380.669617,736.271179 381.401123,742.687683 
	C381.606720,744.491028 382.079865,746.225098 383.207764,747.769836 
	C387.541016,747.315491 391.846313,748.029114 396.138794,746.858643 
	C400.532593,745.660583 402.005493,748.437988 402.320221,752.298889 
	C403.314362,764.495850 404.360657,776.688599 405.352356,788.885742 
	C405.521423,790.965088 405.782806,792.879883 408.212372,793.552124 
	C415.373749,795.533813 420.518738,791.226135 419.573303,784.017151 
	C419.508911,783.526245 419.325073,783.049377 419.277679,782.558167 
	C418.119537,770.559204 416.972351,758.559265 416.110199,745.683777 
z"/>
<path fill="#000000" opacity="1.000000" stroke="none" 
	d="
M472.905212,359.116608 
	C467.966461,354.930023 463.771454,350.534576 459.779449,345.570557 
	C473.546143,329.360779 489.053375,316.133728 511.288300,314.825867 
	C523.329224,314.117584 534.561279,317.936584 544.586548,324.793549 
	C552.003784,329.866699 558.936584,335.522400 565.247925,341.962799 
	C567.506958,344.267975 567.510986,346.185822 565.563599,348.406403 
	C553.903137,361.702301 540.437988,372.397430 522.416870,375.069122 
	C506.416107,377.441254 491.860107,372.766296 478.678619,363.627899 
	C476.772095,362.306152 474.996887,360.795074 472.905212,359.116608 
M495.852386,334.356903 
	C490.880493,341.758362 491.635071,348.897034 496.440796,356.138550 
	C501.145996,363.228516 507.871277,365.384491 515.788086,364.533356 
	C522.989746,363.759064 528.129761,359.304047 531.120300,353.160797 
	C535.457825,344.250641 531.747314,332.451172 524.049438,328.164948 
	C512.992126,322.008148 503.138458,323.974365 495.852386,334.356903 
z"/>
<path fill="#000000" opacity="1.000000" stroke="none" 
	d="
M433.302673,323.214661 
	C442.218170,318.819733 451.063080,315.323242 461.722290,312.271210 
	C457.028259,320.212433 453.147003,326.880219 449.143860,333.473969 
	C448.233643,334.973206 446.377899,335.178284 444.819092,335.736603 
	C412.232269,347.408264 384.440460,366.218567 361.468384,392.077057 
	C356.761444,397.375397 352.612396,403.169373 347.905945,409.114166 
	C348.561493,390.020660 397.149841,341.388123 433.302673,323.214661 
z"/>
<path fill="#000000" opacity="1.000000" stroke="none" 
	d="
M604.174072,329.781311 
	C631.617004,345.795532 653.241882,367.177032 670.482300,394.581177 
	C666.247803,393.630737 665.197937,390.807526 663.354431,388.866394 
	C648.977905,373.729095 633.053528,360.602814 614.715210,350.414185 
	C603.934326,344.424438 592.855042,339.253265 581.153381,335.402679 
	C578.836548,334.640289 577.175659,333.314392 575.946960,331.118225 
	C572.905701,325.681854 569.641724,320.370056 566.934021,314.456818 
	C580.419189,317.028564 592.121643,323.363312 604.174072,329.781311 
z"/>
<path fill="#000000" opacity="1.000000" stroke="none" 
	d="
M391.303406,381.358582 
	C376.326996,391.079834 363.569885,402.804443 351.635101,416.757660 
	C355.130798,396.472290 415.708282,348.061523 442.231079,343.433136 
	C441.072784,350.518250 433.942841,359.745483 427.662201,362.202057 
	C414.935577,367.179871 402.845764,373.362335 391.303406,381.358582 
z"/>
<path fill="#000000" opacity="1.000000" stroke="none" 
	d="
M596.604858,360.555573 
	C588.805237,357.181274 587.544128,349.610107 584.234802,343.321533 
	C621.247803,356.123383 650.565308,378.822266 672.700073,411.021027 
	C651.240784,388.482849 626.012268,371.691254 596.604858,360.555573 
z"/>
<path fill="#000000" opacity="1.000000" stroke="none" 
	d="
M424.593689,375.572937 
	C422.710266,379.666473 420.049866,382.153015 416.071503,383.795441 
	C393.421570,393.146118 372.924042,405.832458 355.816254,423.611908 
	C355.132294,424.322784 354.326691,424.920654 353.550598,425.536987 
	C353.177124,425.833557 352.755737,426.177917 351.822021,425.222260 
	C371.480774,399.133270 397.081879,381.047424 427.855682,368.075012 
	C427.569305,371.673035 425.769745,373.297455 424.593689,375.572937 
z"/>
<path fill="#000000" opacity="1.000000" stroke="none" 
	d="
M663.706360,410.327301 
	C664.576721,411.353088 665.266235,412.085541 665.783691,412.924072 
	C665.990417,413.259125 665.817749,413.828308 665.817749,414.918976 
	C660.811890,413.056213 657.344116,409.420319 653.541016,406.545044 
	C640.722046,396.853516 626.862915,389.056152 611.858154,383.492859 
	C604.602844,380.802795 601.661926,375.188171 599.207642,368.558594 
	C623.937744,377.279541 644.884277,391.823456 663.706360,410.327301 
z"/>
<path fill="#000000" opacity="1.000000" stroke="none" 
	d="
M508.197632,351.163086 
	C504.280151,347.774597 503.908569,344.042358 506.643982,340.348572 
	C509.021942,337.137451 512.391235,335.851746 516.289124,337.763947 
	C520.257874,339.710938 520.820984,343.318176 520.165344,347.124481 
	C519.323975,352.009521 515.073975,353.475494 508.197632,351.163086 
z"/>
</svg>