<svg width="16" height="16" viewBox="0 0 16 16" fill="none" xmlns="http://www.w3.org/2000/svg">
<path d="M7.51989 6.35334L5.87322 8L7.51989 9.64667C7.5857 9.70778 7.63382 9.78552 7.65916 9.87169C7.6845 9.95785 7.68613 10.0493 7.66389 10.1363C7.64164 10.2233 7.59633 10.3027 7.53274 10.3661C7.46915 10.4295 7.38963 10.4746 7.30255 10.4967C7.21564 10.5189 7.12432 10.5174 7.03821 10.4922C6.9521 10.4669 6.87438 10.419 6.81322 10.3533L4.81322 8.35334C4.71959 8.25959 4.66699 8.1325 4.66699 8C4.66699 7.8675 4.71959 7.74042 4.81322 7.64667L6.81322 5.64667C6.87433 5.58085 6.95207 5.53274 7.03823 5.5074C7.1244 5.48205 7.21581 5.48042 7.30282 5.50267C7.38984 5.52492 7.46924 5.57022 7.53267 5.63382C7.5961 5.69741 7.6412 5.77693 7.66322 5.864C7.6855 5.95092 7.68394 6.04223 7.65872 6.12834C7.6335 6.21445 7.58554 6.29217 7.51989 6.35334Z" fill="white" stroke="white"/>
<path d="M2.49992 1.33334H13.4999C14.1439 1.33334 14.6666 1.856 14.6666 2.5V13.5C14.6666 13.8094 14.5437 14.1062 14.3249 14.325C14.1061 14.5438 13.8093 14.6667 13.4999 14.6667H2.49992C2.1905 14.6667 1.89375 14.5438 1.67496 14.325C1.45617 14.1062 1.33325 13.8094 1.33325 13.5V2.5C1.33325 1.856 1.85592 1.33334 2.49992 1.33334ZM2.33325 2.5V13.5C2.33325 13.592 2.40792 13.6667 2.49992 13.6667H9.99992V2.33334H2.49992C2.45572 2.33334 2.41332 2.3509 2.38207 2.38215C2.35081 2.41341 2.33325 2.4558 2.33325 2.5ZM10.9999 13.6667H13.4999C13.5441 13.6667 13.5865 13.6491 13.6178 13.6179C13.649 13.5866 13.6666 13.5442 13.6666 13.5V2.5C13.6666 2.4558 13.649 2.41341 13.6178 2.38215C13.5865 2.3509 13.5441 2.33334 13.4999 2.33334H10.9999V13.6667Z" fill="white" stroke="white"/>
</svg>
