<?xml version="1.0" standalone="no"?>
<!DOCTYPE svg PUBLIC "-//W3C//DTD SVG 20010904//EN"
 "http://www.w3.org/TR/2001/REC-SVG-20010904/DTD/svg10.dtd">
<svg version="1.0" xmlns="http://www.w3.org/2000/svg"
 width="169.000000pt" height="174.000000pt" viewBox="0 0 169.000000 174.000000"
 preserveAspectRatio="xMidYMid meet">

<g transform="translate(0.000000,174.000000) scale(0.100000,-0.100000)"
fill="#000000" stroke="none">
<path d="M1534 1674 c-18 -14 -18 -14 6 -3 31 14 36 19 24 19 -6 0 -19 -7 -30
-16z"/>
<path d="M1595 1679 c4 -11 -4 -26 -22 -43 -17 -16 -21 -24 -10 -20 32 12 17
-4 -32 -34 -32 -20 -51 -40 -56 -59 l-8 -28 -7 30 c-7 30 -7 30 -33 -25 -15
-34 -32 -98 -42 -165 -10 -60 -25 -131 -35 -157 l-18 -48 41 -30 c23 -16 44
-30 48 -30 50 0 90 196 71 342 -11 86 -1 109 63 151 44 28 50 37 53 71 2 21
-2 44 -8 50 -8 8 -10 7 -5 -5z"/>
<path d="M1083 1623 c26 -2 67 -2 90 0 23 2 2 3 -48 3 -49 0 -68 -1 -42 -3z"/>
<path d="M998 1613 c7 -3 16 -2 19 1 4 3 -2 6 -13 5 -11 0 -14 -3 -6 -6z"/>
<path d="M1238 1613 c7 -3 16 -2 19 1 4 3 -2 6 -13 5 -11 0 -14 -3 -6 -6z"/>
<path d="M1430 1610 c-9 -6 -10 -10 -3 -10 6 0 15 5 18 10 8 12 4 12 -15 0z"/>
<path d="M944 1594 c-18 -14 -18 -14 6 -3 31 14 36 19 24 19 -6 0 -19 -7 -30
-16z"/>
<path d="M1278 1603 c7 -3 16 -2 19 1 4 3 -2 6 -13 5 -11 0 -14 -3 -6 -6z"/>
<path d="M1318 1593 c7 -3 16 -2 19 1 4 3 -2 6 -13 5 -11 0 -14 -3 -6 -6z"/>
<path d="M898 1555 c-10 -22 -6 -30 40 -83 28 -33 58 -65 67 -72 8 -7 15 -25
15 -41 0 -17 5 -29 13 -29 7 0 50 38 97 85 134 135 141 118 39 -97 -39 -82
-69 -154 -66 -161 2 -7 36 19 79 61 41 39 78 72 81 72 4 0 7 -26 7 -57 1 -52
4 -60 28 -77 l27 -19 -22 24 c-18 19 -23 37 -23 77 0 28 -5 54 -11 58 -6 3
-36 -18 -67 -48 -32 -30 -65 -60 -75 -67 -16 -13 -16 -11 -3 20 8 19 39 86 70
149 60 123 64 141 41 160 -13 11 -29 -1 -102 -79 -48 -50 -90 -91 -95 -91 -4
0 -8 10 -8 23 0 14 -25 50 -66 95 -61 67 -66 75 -56 98 7 13 9 24 7 24 -3 0
-10 -11 -17 -25z"/>
<path d="M696 1308 c-78 -79 -207 -195 -286 -259 -80 -64 -162 -134 -182 -155
-38 -40 -108 -150 -108 -168 0 -6 15 15 32 46 46 86 87 128 252 261 83 67 216
186 297 265 133 129 149 142 167 131 18 -11 16 -15 -37 -55 -98 -74 -158 -146
-205 -247 -24 -50 -52 -99 -62 -109 -11 -9 -67 -45 -126 -81 -59 -36 -127 -81
-152 -101 -92 -76 -160 -212 -172 -347 -4 -38 -9 -67 -12 -64 -3 3 -9 49 -12
103 l-7 97 -1 -77 c-4 -183 100 -344 274 -425 183 -84 351 -80 476 12 135 99
353 426 476 715 71 166 72 149 -13 222 -55 48 -74 70 -77 93 l-3 29 -95 -87
c-52 -48 -98 -87 -102 -87 -5 0 -8 7 -8 15 0 11 54 153 107 283 12 27 -22 9
-76 -43 -32 -30 -61 -55 -66 -55 -4 0 -4 25 0 56 l7 56 -61 59 c-33 33 -65 59
-72 59 -6 0 -75 -64 -153 -142z"/>
<path d="M101 679 c-6 -18 -11 -37 -10 -43 0 -6 7 7 15 28 8 22 12 41 10 43
-2 2 -9 -10 -15 -28z"/>
</g>
</svg>
