<svg width="16" height="16" viewBox="0 0 16 16" fill="none" xmlns="http://www.w3.org/2000/svg">
<path d="M4 2.66659C5.10457 2.66659 6 5.0544 6 7.99992C6 10.9454 5.10457 13.3333 4 13.3333M4 2.66659C2.89543 2.66659 2 5.0544 2 7.99992C2 10.9454 2.89543 13.3333 4 13.3333M4 2.66659L8 2.66659M4 13.3333L8 13.3333M8 13.3333C8.53043 13.3333 9.03914 12.7713 9.41421 11.7712C9.78929 10.771 10 9.41441 10 7.99992C10 6.58543 9.78929 5.22888 9.41421 4.22868C9.03914 3.22849 8.53043 2.66659 8 2.66659M8 13.3333L12 13.3333C12.5304 13.3333 13.0391 12.7713 13.4142 11.7712C13.7893 10.771 14 9.41441 14 7.99992C14 6.58543 13.7893 5.22888 13.4142 4.22868C13.0391 3.22849 12.5304 2.66659 12 2.66659L8 2.66659" stroke="#E7E3D8" stroke-width="2" stroke-linecap="round" stroke-linejoin="round"/>
</svg>
