<svg version="1.1" id="Layer_1" xmlns="http://www.w3.org/2000/svg" xmlns:xlink="http://www.w3.org/1999/xlink"
	 viewBox="-100 -140 600 600" xml:space="preserve">
	<style type="text/css">
		.st0{fill:url(#SVGID_1_);}
	</style>
	<linearGradient id="SVGID_1_" gradientUnits="userSpaceOnUse" x1="360.8791" y1="351.4553" x2="141.213" y2="-69.2936" gradientTransform="matrix(1 0 0 -1 0 314)">
		<stop offset="0" style="stop-color:rgb(24 251 156)"/>
		<stop offset="1" style="stop-color:rgb(154 69 254)"/>
	</linearGradient>
	<circle class="st0" cx="200" cy="160" r="300" />
	<path fill="white" d="M64.6,237.9c2.4-2.4,5.7-3.8,9.2-3.8h317.4c5.8,0,8.7,7,4.6,11.1l-62.7,62.7c-2.4,2.4-5.7,3.8-9.2,3.8H6.5
		c-5.8,0-8.7-7-4.6-11.1L64.6,237.9z"/>
	<path fill="white" d="M64.6,3.8C67.1,1.4,70.4,0,73.8,0h317.4c5.8,0,8.7,7,4.6,11.1l-62.7,62.7c-2.4,2.4-5.7,3.8-9.2,3.8H6.5
		c-5.8,0-8.7-7-4.6-11.1L64.6,3.8z"/>
	<path fill="white" d="M333.1,120.1c-2.4-2.4-5.7-3.8-9.2-3.8H6.5c-5.8,0-8.7,7-4.6,11.1l62.7,62.7c2.4,2.4,5.7,3.8,9.2,3.8h317.4
		c5.8,0,8.7-7,4.6-11.1L333.1,120.1z"/>
</svg>
