<svg width="100" height="100" viewBox="0 0 100 100" fill="none" xmlns="http://www.w3.org/2000/svg">
<path d="M50 100C77.8761 100 100 77.4336 100 50C100 22.1239 77.4336 0 50 0C22.1239 0 0 22.5664 0 50C0 77.4336 22.5664 100 50 100Z" fill="#2C374B"/>
<path fill-rule="evenodd" clip-rule="evenodd" d="M77.4327 31.8588C76.9902 31.4163 55.3088 18.5844 52.654 17.6995C51.769 17.257 49.5566 16.8145 48.2292 17.257C46.9018 17.6995 23.8929 30.9738 23.008 31.8588C22.5655 32.3013 22.123 33.1862 21.6805 33.6287C21.238 34.5136 21.238 34.9561 21.238 50.4429V66.372L24.3354 68.142C26.1053 69.0269 27.4327 69.9119 27.4327 69.9119C27.8752 69.9119 48.6717 36.726 48.6717 36.2836C48.6717 35.8411 43.8044 35.8411 42.477 36.2836C40.7071 36.726 39.3796 37.611 38.4947 38.4959C38.0522 38.9384 35.3973 43.3632 31.8575 48.2305C28.7602 53.0977 26.1053 57.5225 26.1053 57.5225C26.1053 57.5225 26.1053 53.0977 26.1053 46.903V35.8411L26.5478 35.3986C27.4327 34.5136 49.9991 21.6818 50.8841 21.6818C51.3265 21.6818 51.769 21.6818 57.0787 24.7791C58.8487 25.6641 63.7159 28.319 67.6982 30.9738C71.6805 33.1862 75.2203 35.3986 75.6628 35.8411L76.1053 36.2836V59.2924L65.0433 42.0358C64.6009 41.1508 64.1584 40.2659 63.7159 39.8234C63.7159 39.8234 63.2734 40.7083 60.6186 45.1331C60.1761 45.5756 59.7336 46.4605 59.7336 46.903L59.2911 47.788L59.7336 48.2305L60.1761 48.6729C60.1761 48.6729 60.1761 49.1154 60.6186 49.1154L61.5035 50.4429C61.5035 50.4429 61.5035 50.8853 61.946 50.8853C62.3885 51.3278 62.831 52.2128 62.831 52.6552C62.831 52.6552 62.831 52.6552 62.831 53.0977L72.123 68.142L71.238 68.5844C70.7956 69.0269 70.3531 69.0269 69.9106 69.0269L58.4062 51.3278L57.9637 50.8853L57.0787 52.6552L52.654 59.7349L61.5035 73.8942C60.1761 74.7791 52.654 80.0889 52.2115 80.0889C51.769 80.0889 41.592 73.4517 42.0345 73.0092C42.0345 73.0092 45.1318 67.6995 48.6717 61.5048C51.769 56.1951 55.7513 49.5579 58.4062 45.1331C61.5035 39.8234 62.831 37.1685 62.831 37.1685C62.831 37.1685 60.6186 37.1685 57.9637 37.1685H53.5389L43.3619 53.9827C39.8221 60.1774 36.2823 65.9296 34.5124 69.0269C31.415 69.4694 30.5301 70.3544 30.5301 70.3544L30.0876 71.2393L38.0522 75.6641C42.477 78.319 46.4593 80.5313 47.3442 80.9738C48.6717 81.8588 50.8841 81.8588 51.769 81.8588C52.654 81.4163 75.6628 68.142 76.9902 67.257C77.4327 66.8145 77.8752 66.3721 78.3177 65.4871L78.7602 64.1597V49.5579V34.9561L78.3177 34.0712C78.3177 33.1862 77.4327 32.3013 77.4327 31.8588Z" fill="white"/>
<path d="M75.2207 58.8493L61.9464 38.4954L57.0791 46.46L69.911 67.2564L75.6632 64.6016L75.2207 58.8493Z" fill="#24A2EE"/>
<path d="M69.0256 69.9114L55.7512 49.5574L49.999 58.4069L60.6185 75.2211L67.2557 72.5662L69.0256 69.9114Z" fill="#24A2EE"/>
<path fill-rule="evenodd" clip-rule="evenodd" d="M25.6634 35.8405L49.9997 21.6812L74.336 35.8405V64.1591L49.9997 78.3184L31.8581 68.1414L29.6457 72.1237L49.5572 83.6281C49.9997 84.0706 50.4422 84.0706 50.8846 83.6281L78.7607 67.6989C79.2032 67.2564 79.6457 66.8139 79.6457 66.3715V34.5131C79.6457 34.0706 79.2032 33.6281 78.7607 33.1856L50.8846 17.2564C50.4422 16.8139 49.9997 16.8139 49.5572 17.2564L21.6811 32.7431C21.2386 33.1856 20.7961 33.6281 20.7961 34.0706V65.929C20.7961 66.3715 21.2386 66.8139 21.6811 67.2564L27.4333 70.3538L30.0882 66.3715L26.1059 64.1591V35.8405H25.6634Z" fill="#98BCDC"/>
<path d="M60.6192 35.8401H51.3272L29.6458 71.2383L37.1679 75.6631L60.6192 35.8401Z" fill="white"/>
<path d="M37.1678 39.3803C39.3802 35.8405 45.5749 35.8405 48.2298 36.283L26.9908 70.3538C26.1059 69.9113 24.336 69.0264 23.0085 68.1414C21.2386 67.2565 20.7961 67.2565 20.7961 65.929V64.1591C25.6634 57.0795 34.9554 42.9202 37.1678 39.3803Z" fill="white"/>
</svg>
