<svg width="100" height="100" viewBox="0 0 100 100" fill="none" xmlns="http://www.w3.org/2000/svg">
<g clip-path="url(#clip0_2039_10)">
<path d="M80.8384 17.1543H19.0952V73.2713H80.8384V17.1543Z" fill="white"/>
<path fill-rule="evenodd" clip-rule="evenodd" d="M99.9667 49.9999C99.9667 77.5777 77.5961 99.9334 49.9999 99.9334C22.4041 99.9334 0.0332031 77.5777 0.0332031 49.9999C0.0332031 22.4224 22.4041 0.0664062 49.9999 0.0664062C77.5961 0.0664062 99.9667 22.4224 99.9667 49.9999ZM35.8408 69.8709H26.1436C24.106 69.8709 23.0995 69.8709 22.4858 69.4786C21.8229 69.0491 21.4178 68.3377 21.3687 67.5524C21.3319 66.829 21.8352 65.9455 22.8417 64.1791L46.7852 22.0036C47.804 20.2126 48.3195 19.3171 48.9701 18.986C49.6697 18.6302 50.5045 18.6302 51.2041 18.986C51.8547 19.3171 52.3703 20.2126 53.389 22.0036L58.3113 30.5903L58.3364 30.6341C59.4368 32.5554 59.9948 33.5298 60.2385 34.5524C60.5084 35.6687 60.5084 36.8463 60.2385 37.9626C59.9929 38.9929 59.4406 39.9743 58.3236 41.9247L45.7466 64.1423L45.7141 64.1993C44.6065 66.1364 44.0451 67.1183 43.2671 67.859C42.4202 68.6688 41.4013 69.2572 40.2843 69.589C39.2655 69.8709 38.124 69.8709 35.8408 69.8709ZM60.3293 69.8709H74.2241C76.274 69.8709 77.3053 69.8709 77.9194 69.4667C78.5821 69.0372 78.9993 68.3131 79.0365 67.5285C79.0718 66.8284 78.5794 65.9793 77.6147 64.3155C77.5814 64.2589 77.5482 64.2012 77.5142 64.1426L70.5542 52.2439L70.475 52.11C69.4969 50.4572 69.0033 49.6225 68.3692 49.2999C67.6699 48.9441 66.8469 48.9441 66.1476 49.2999C65.5092 49.6311 64.9937 50.502 63.9749 52.2562L57.0396 64.1549L57.0158 64.1959C56.0006 65.9472 55.4932 66.8224 55.5298 67.5405C55.5789 68.3257 55.984 69.0491 56.6468 69.4786C57.2483 69.8709 58.2794 69.8709 60.3293 69.8709Z" fill="#E84142"/>
</g>
<defs>
<clipPath id="clip0_2039_10">
<rect width="100" height="100" fill="white"/>
</clipPath>
</defs>
</svg>
