<svg width="100" height="100" viewBox="0 0 100 100" fill="none" xmlns="http://www.w3.org/2000/svg">
<path d="M50 0C77.6139 0 100 22.3861 100 50C100 77.6139 77.6139 100 50 100C22.3861 100 0 77.6139 0 50C0 22.3861 22.3861 0 50 0Z" fill="#0052FF"/>
<path d="M50.0218 67.5706C40.3038 67.5706 32.4513 59.6964 32.4513 50.0001C32.4513 40.3038 40.3255 32.4296 50.0218 32.4296C58.7203 32.4296 65.9437 38.7637 67.332 47.0717H85.0326C83.5359 29.024 68.4383 14.8374 50.0001 14.8374C30.5858 14.8374 14.8374 30.5858 14.8374 50.0001C14.8374 69.4144 30.5858 85.1628 50.0001 85.1628C68.4383 85.1628 83.5359 70.9762 85.0326 52.9285H67.3103C65.922 61.2365 58.7203 67.5706 50.0218 67.5706Z" fill="white"/>
</svg>
